HIERARCHY
ROOT Hips
{
	OFFSET 55.013302 -7.585686 96.185501
	CHANNELS 6 Xposition Yposition Zposition Xrotation Yrotation Zrotation
	JOINT spine
	{
		OFFSET 0.000000 -0.467661 8.132492
		CHANNELS 3 Xrotation Yrotation Zrotation
		JOINT spine1
		{
			OFFSET 0.000000 -0.000002 10.349800
			CHANNELS 3 Xrotation Yrotation Zrotation
			JOINT spine2
			{
				OFFSET 0.000000 -0.000001 9.916992
				CHANNELS 3 Xrotation Yrotation Zrotation
				JOINT Neck
				{
					OFFSET 0.000000 -1.213904 25.461006
					CHANNELS 3 Xrotation Yrotation Zrotation
					JOINT Head
					{
						OFFSET 0.000000 -0.000001 7.692444
						CHANNELS 3 Xrotation Yrotation Zrotation
						End Site
						{
							OFFSET 0.000000 6.140627 18.619995
						}
					}
				}
				JOINT RightShoulder
				{
					OFFSET -4.175751 0.581443 10.709602
					CHANNELS 3 Xrotation Yrotation Zrotation
					JOINT RightArm
					{
						OFFSET 0.000000 -0.000002 14.046600
						CHANNELS 3 Xrotation Yrotation Zrotation
						JOINT RightArmRoll
						{
							OFFSET 0.000000 -0.000001 7.090973
							CHANNELS 3 Xrotation Yrotation Zrotation
							JOINT RightForeArm
							{
								OFFSET 0.000000 -0.000004 20.653503
								CHANNELS 3 Xrotation Yrotation Zrotation
								JOINT RightForeArmRoll
								{
									OFFSET 0.000000 -0.000001 7.957184
									CHANNELS 3 Xrotation Yrotation Zrotation
									JOINT RightHand
									{
										OFFSET 0.000000 -0.000003 15.968307
										CHANNELS 3 Xrotation Yrotation Zrotation
										End Site
										{
											OFFSET 0.000000 0.000000 0.100006
										}
									}
								}
							}
						}
					}
				}
				JOINT LeftShoulder
				{
					OFFSET 4.175751 0.581443 10.709602
					CHANNELS 3 Xrotation Yrotation Zrotation
					JOINT LeftArm
					{
						OFFSET 0.000000 -0.000002 14.046600
						CHANNELS 3 Xrotation Yrotation Zrotation
						JOINT LeftArmRoll
						{
							OFFSET 0.000000 -0.000001 7.090973
							CHANNELS 3 Xrotation Yrotation Zrotation
							JOINT LeftForeArm
							{
								OFFSET 0.000000 -0.000004 20.653503
								CHANNELS 3 Xrotation Yrotation Zrotation
								JOINT LeftForeArmRoll
								{
									OFFSET 0.000000 -0.000001 7.957184
									CHANNELS 3 Xrotation Yrotation Zrotation
									JOINT LeftHand
									{
										OFFSET 0.000000 -0.000003 15.968307
										CHANNELS 3 Xrotation Yrotation Zrotation
										End Site
										{
											OFFSET 0.000000 0.000000 0.100006
										}
									}
								}
							}
						}
					}
				}
			}
		}
	}
	JOINT RightUpLeg
	{
		OFFSET -7.208340 1.108840 -1.321823
		CHANNELS 3 Xrotation Yrotation Zrotation
		JOINT RightUpLegRoll
		{
			OFFSET 0.000000 -0.000003 18.723801
			CHANNELS 3 Xrotation Yrotation Zrotation
			JOINT RightLeg
			{
				OFFSET 0.000000 0.000004 -23.186600
				CHANNELS 3 Xrotation Yrotation Zrotation
				JOINT RightLegRoll
				{
					OFFSET 0.000000 -0.000004 23.262398
					CHANNELS 3 Xrotation Yrotation Zrotation
					JOINT RightFoot
					{
						OFFSET 0.000000 -0.000003 19.362099
						CHANNELS 3 Xrotation Yrotation Zrotation
						JOINT RightToeBase
						{
							OFFSET 0.000000 -0.000003 16.185699
							CHANNELS 3 Xrotation Yrotation Zrotation
							End Site
							{
								OFFSET 0.006859 0.903521 7.838623
							}
						}
					}
				}
			}
		}
	}
	JOINT LeftUpLeg
	{
		OFFSET 7.208340 1.108840 -1.321823
		CHANNELS 3 Xrotation Yrotation Zrotation
		JOINT LeftUpLegRoll
		{
			OFFSET 0.000000 -0.000003 18.723900
			CHANNELS 3 Xrotation Yrotation Zrotation
			JOINT LeftLeg
			{
				OFFSET 0.000000 -0.000004 23.186501
				CHANNELS 3 Xrotation Yrotation Zrotation
				JOINT LeftLegRoll
				{
					OFFSET 0.000000 -0.000004 23.477509
					CHANNELS 3 Xrotation Yrotation Zrotation
					JOINT LeftFoot
					{
						OFFSET 0.000000 -0.000003 19.147003
						CHANNELS 3 Xrotation Yrotation Zrotation
						JOINT LeftToeBase
						{
							OFFSET 0.000000 -0.000003 16.185699
							CHANNELS 3 Xrotation Yrotation Zrotation
							End Site
							{
								OFFSET -0.030746 0.903521 7.838623
							}
						}
					}
				}
			}
		}
	}
}
MOTION
Frames: 8
Frame Time: 0.041667
54.391003 -5.496934 96.208191 -0.661668 -0.381571 0.975231 -2.346975 -0.185650 0.077370 -0.690880 -0.380120 0.150576 0.954200 -0.378262 0.155092 19.801576 2.205178 -3.583994 -0.205542 -1.000983 -3.463111 -20.346702 -31.786345 -24.404192 58.094871 -39.659972 101.391740 0.000004 0.000008 -0.000028 0.402414 8.602745 1.226117 -0.000015 0.000000 -3.014911 -5.000171 -8.000479 -0.000058 -20.470862 43.439419 24.397495 38.370370 35.090831 -74.161224 0.000006 -0.000009 0.000003 -0.039841 -5.226909 0.906891 -0.000001 0.000003 3.037513 -5.000165 8.000019 0.000002 -4.790612 -171.505353 3.673695 179.999991 -0.000005 -0.942998 170.345956 -1.693690 -0.615063 -0.000003 0.000000 -0.055647 68.176496 6.129842 4.133514 25.457759 -7.355619 0.001289 -2.895289 174.897485 -0.101741 -0.000005 -0.000005 -1.017750 -10.737557 1.086974 0.567703 -0.000000 -0.000003 -0.169944 71.444755 -6.471133 -3.115188 25.460927 7.347816 -0.000581 
54.386398 -5.498686 96.208290 -0.666064 -0.382183 0.975602 -2.346561 -0.185400 0.077604 -0.690050 -0.379454 0.150346 0.955031 -0.377604 0.154863 19.793111 2.208042 -3.583796 -0.200717 -1.001594 -3.462969 -20.345284 -31.782779 -24.402285 58.100355 -39.663667 101.396979 0.000003 0.000009 -0.000029 0.403206 8.602801 1.226185 -0.000015 0.000001 -3.014910 -5.000172 -8.000476 -0.000056 -20.472587 43.442295 24.399693 38.369646 35.092423 -74.154414 0.000007 -0.000010 0.000007 -0.039842 -5.222459 0.907576 -0.000001 0.000004 3.037511 -5.000165 8.000021 0.000000 -4.788019 -171.505312 3.674588 179.999991 -0.000005 -0.942998 170.342254 -1.693673 -0.615173 -0.000003 0.000000 -0.055653 68.178047 6.129791 4.133217 25.457763 -7.355619 0.001290 -2.892420 174.898468 -0.101387 -0.000005 -0.000005 -1.017750 -10.740052 1.085825 0.567718 -0.000001 -0.000003 -0.169975 71.445848 -6.471228 -3.114841 25.460929 7.347817 -0.000582 
54.388405 -5.503757 96.208893 -0.670579 -0.382453 0.976277 -2.346063 -0.185229 0.077837 -0.689053 -0.379025 0.150233 0.956027 -0.377183 0.154753 19.783023 2.209980 -3.583773 -0.194385 -1.001413 -3.463127 -20.344888 -31.780016 -24.401727 58.105075 -39.666778 101.401091 0.000003 0.000012 -0.000028 0.404426 8.602501 1.226149 -0.000016 -0.000001 -3.014903 -5.000171 -8.000479 -0.000056 -20.473950 43.444535 24.401467 38.370097 35.093488 -74.149736 0.000006 -0.000009 0.000006 -0.039843 -5.218878 0.908166 -0.000001 0.000004 3.037511 -5.000165 8.000021 0.000008 -4.784754 -171.505271 3.675360 179.999991 -0.000005 -0.942998 170.339454 -1.693658 -0.615254 -0.000003 -0.000000 -0.055658 68.179372 6.129676 4.132822 25.457759 -7.355619 0.001289 -2.890172 174.898455 -0.100860 -0.000005 -0.000005 -1.017760 -10.743348 1.084408 0.567735 -0.000000 -0.000002 -0.170005 71.446941 -6.471322 -3.114495 25.460929 7.347818 -0.000582 
54.387604 -5.502697 96.208595 -0.675201 -0.382331 0.977307 -2.345474 -0.185143 0.078062 -0.687885 -0.378863 0.150253 0.957196 -0.377028 0.154777 19.771427 2.210809 -3.583956 -0.186367 -1.000314 -3.463634 -20.345476 -31.777872 -24.402611 58.108545 -39.669121 101.403598 0.000003 0.000009 -0.000028 0.406123 8.601768 1.225966 -0.000015 -0.000000 -3.014903 -5.000172 -8.000477 -0.000056 -20.474785 43.446079 24.402570 38.371887 35.094048 -74.147318 0.000006 -0.000009 0.000007 -0.039842 -5.216238 0.908642 -0.000001 0.000004 3.037508 -5.000165 8.000019 0.000006 -4.780743 -171.505217 3.675993 179.999991 -0.000005 -0.942998 170.337746 -1.692651 -0.615137 -0.000003 0.000000 -0.055662 68.180273 6.129517 4.132242 25.457761 -7.355619 0.001290 -2.888636 174.898455 -0.100192 -0.000005 -0.000005 -1.017760 -10.747443 1.082674 0.567749 -0.000001 -0.000003 -0.170036 71.448130 -6.471388 -3.113935 25.460927 7.347816 -0.000582 
54.381504 -5.457175 96.198494 -0.680309 -0.381680 0.978772 -2.344663 -0.185201 0.078353 -0.686255 -0.379091 0.150523 0.958826 -0.377261 0.155056 19.756218 2.211114 -3.584444 -0.174757 -0.998689 -3.464576 -20.347924 -31.776007 -24.406160 58.111646 -39.670466 101.404759 0.000003 0.000010 -0.000027 0.408657 8.600465 1.225619 -0.000016 0.000001 -3.014901 -5.000171 -8.000478 -0.000060 -20.474679 43.446994 24.402429 38.375326 35.093713 -74.148308 0.000007 -0.000010 0.000001 -0.039841 -5.215239 0.908944 -0.000002 0.000004 3.037510 -5.000166 8.000020 0.000007 -4.775372 -171.506146 3.676598 179.999991 -0.000005 -0.942999 170.337377 -1.692650 -0.615147 -0.000003 0.000000 -0.055667 68.180751 6.129391 4.131291 25.457763 -7.355617 0.001289 -2.887722 174.898441 -0.099371 -0.000005 -0.000005 -1.017760 -10.752936 1.080463 0.567768 -0.000001 -0.000003 -0.170066 71.449632 -6.471419 -3.112954 25.460927 7.347818 -0.000583 
54.385506 -5.465590 96.199989 -0.686209 -0.380450 0.980665 -2.343513 -0.185436 0.078765 -0.683960 -0.379757 0.151110 0.961121 -0.377933 0.155656 19.736311 2.211550 -3.585293 -0.158338 -0.997000 -3.465955 -20.352613 -31.773477 -24.412896 58.115143 -39.670849 101.405483 0.000003 0.000011 -0.000026 0.412250 8.598552 1.225094 -0.000015 -0.000000 -3.014901 -5.000171 -8.000478 -0.000056 -20.473381 43.447335 24.400755 38.380684 35.092474 -74.153690 0.000006 -0.000009 0.000005 -0.039842 -5.216310 0.909032 -0.000001 0.000003 3.037500 -5.000165 8.000020 0.000006 -4.768339 -171.508058 3.677192 179.999991 -0.000005 -0.942998 170.338361 -1.692656 -0.616115 -0.000003 0.000000 -0.055672 68.180997 6.129127 4.130125 25.457759 -7.355619 0.001290 -2.887296 174.897458 -0.098358 -0.000005 -0.000005 -1.017760 -10.759828 1.077678 0.567785 -0.000001 -0.000002 -0.170096 71.451319 -6.471388 -3.111950 25.460925 7.347817 -0.000582 
54.390404 -5.494885 96.212891 -0.692746 -0.378730 0.982919 -2.342093 -0.185821 0.079272 -0.681119 -0.380792 0.151957 0.963962 -0.378970 0.156519 19.712392 2.212002 -3.586423 -0.138010 -0.995174 -3.467708 -20.359155 -31.770635 -24.422207 58.118688 -39.670439 101.405387 0.000002 0.000010 -0.000028 0.416711 8.596102 1.224425 -0.000016 0.000000 -3.014889 -5.000170 -8.000478 -0.000055 -20.471076 43.447267 24.397834 38.387309 35.090387 -74.162406 0.000007 -0.000010 0.000006 -0.039841 -5.219138 0.908938 -0.000002 0.000004 3.037499 -5.000166 8.000018 0.000003 -4.759911 -171.510940 3.677802 179.999991 -0.000005 -0.942998 170.340492 -1.692666 -0.616052 -0.000003 0.000001 -0.055677 68.181018 6.128842 4.128568 25.457761 -7.355618 0.001289 -2.887280 174.896447 -0.097224 -0.000005 -0.000005 -1.017770 -10.768017 1.074408 0.567803 -0.000001 -0.000002 -0.170126 71.453218 -6.471358 -3.110535 25.460927 7.347817 -0.000582 
54.390705 -5.481646 96.208794 -0.699778 -0.376611 0.985464 -2.340464 -0.186327 0.079851 -0.677854 -0.382123 0.153003 0.967226 -0.380304 0.157585 19.685380 2.212385 -3.587774 -0.114667 -0.993143 -3.469758 -20.367199 -31.767558 -24.433503 58.122328 -39.669407 101.404820 0.000003 0.000010 -0.000028 0.421866 8.593230 1.223645 -0.000014 -0.000000 -3.014891 -5.000172 -8.000477 -0.000056 -20.468047 43.446734 24.393940 38.395024 35.087604 -74.174099 0.000007 -0.000009 0.000009 -0.039841 -5.223400 0.908688 -0.000001 0.000003 3.037497 -5.000165 8.000018 0.000003 -4.750432 -171.512839 3.678255 179.999991 -0.000005 -0.942998 170.343525 -1.692681 -0.615963 -0.000003 0.000001 -0.055681 68.180827 6.128494 4.126914 25.457759 -7.355619 0.001289 -2.887651 174.894466 -0.095937 -0.000005 -0.000005 -1.017770 -10.777208 1.070750 0.567819 -0.000001 -0.000002 -0.170156 71.455315 -6.471290 -3.109004 25.460927 7.347817 -0.000583 
